#!OML:ASF H:\Terrain\Patient Classification 1\Walking\liu\liu.ASF
:FULLY-SPECIFIED
:DEGREES
194
root 8.132470 16.636700 -10.254800 7.021930 4.129570 -2.840120
lowerback -2.120180 0.836670 0.511645
upperback -0.754285 1.078750 1.672920
thorax 0.367254 0.543315 1.483815
lowerneck -6.768150 -3.423870 -7.976150
upperneck 6.777850 -4.425845 8.108700
head 3.940835 -1.878375 3.542465
rclavicle 0.000000 0.000000
rhumerus -18.551500 4.470805 -39.162048
rradius 24.246450
rwrist -13.370100
rhand -18.190599 -12.084250
rfingers 3.562510
rthumb -4.738820 -26.967699
lclavicle 0.000000 0.000000
lhumerus -24.631250 -4.981750 47.952900
lradius 15.412600
lwrist 7.053100
lhand -6.248550 -12.453700
lfingers 3.562510
lthumb 6.788950 2.314905
rfemur -5.001650 2.865285 14.442450
rtibia 12.124300
rfoot -10.528050 0.590460
rtoes -5.093000
lfemur -19.563049 2.974760 -9.904450
ltibia 22.468651
lfoot -7.401950 4.930210
ltoes -6.297050
195
root 8.138540 16.624399 -10.125900 6.993900 4.117590 -2.853290
lowerback -2.210405 0.732630 0.394549
upperback -0.427821 0.930720 1.684405
thorax 0.755585 0.465580 1.564005
lowerneck -7.982800 -3.485215 -7.486100
upperneck 7.092100 -4.430210 7.811650
head 4.224325 -1.823490 3.341550
rclavicle -0.000000 -0.000000
rhumerus -17.723249 4.487285 -39.142750
rradius 24.455799
rwrist -12.826900
rhand -17.459600 -13.406400
rfingers 3.562510
rthumb -4.033395 -28.319401
lclavicle -0.000000 -0.000000
lhumerus -24.005951 -5.004600 47.858002
lradius 15.129650
lwrist 6.860150
lhand -6.488450 -12.436700
lfingers 3.562510
lthumb 6.557750 2.347105
rfemur -4.564955 2.773190 14.492600
rtibia 11.778900
rfoot -10.365500 0.699750
rtoes -4.872550
lfemur -19.746700 2.734440 -9.896900
ltibia 21.525049
lfoot -7.349300 4.745020
ltoes -5.912150
196
root 8.141820 16.623301 -9.996100 6.940140 3.990080 -3.187970
lowerback -2.118230 0.750925 0.505820
upperback -0.549690 0.956335 1.752205
thorax 0.578835 0.480274 1.567430
lowerneck -7.615350 -3.443100 -7.503000
upperneck 6.944650 -4.386245 7.736250
head 4.098605 -1.826845 3.324500
rclavicle -0.000000 0.000000
rhumerus -17.832050 4.504340 -39.211552
rradius 24.549000
rwrist -12.804950
rhand -17.286699 -13.836050
rfingers 3.562510
rthumb -3.866515 -28.755350
lclavicle -0.000000 0.000000
lhumerus -24.368450 -5.043950 48.051250
lradius 15.031250
lwrist 6.486000
lhand -6.778450 -12.329800
lfingers 3.562510
lthumb 6.278150 2.471525
rfemur -4.143710 2.721390 14.716600
rtibia 11.457800
rfoot -10.211350 0.759140
rtoes -4.476455
lfemur -19.909201 2.575165 -9.696850
ltibia 20.574949
lfoot -7.282100 4.672980
ltoes -5.942550
197
root 8.147330 16.614000 -9.868080 6.915680 3.814220 -3.592560
lowerback -2.250775 0.783795 0.645330
upperback -0.156559 0.973410 1.801530
thorax 1.059630 0.485530 1.554240
lowerneck -8.971050 -3.619365 -7.175200
upperneck 7.238950 -4.509660 7.463350
head 4.429440 -1.831525 3.140850
rclavicle 0.000000 0.000000
rhumerus -17.141850 5.191600 -39.724800
rradius 25.592699
rwrist -15.441400
rhand -19.900351 -17.656750
rfingers 3.562510
rthumb -6.387850 -32.451302
lclavicle 0.000000 0.000000
lhumerus -23.613400 -5.159050 47.978699
lradius 14.851200
lwrist 6.305200
lhand -6.867800 -12.243100
lfingers 3.562510
lthumb 6.192000 2.563480
rfemur -3.730725 2.753680 14.968050
rtibia 11.079300
rfoot -10.119550 0.802335
rtoes -4.185985
lfemur -20.068750 2.468875 -9.446650
ltibia 19.634199
lfoot -7.248750 4.542455
ltoes -5.819250
